<svg width="1300" height="740" viewBox="0 0 1300 740" xmlns="http://www.w3.org/2000/svg">
  <defs>
    <linearGradient id="bg" x1="0%" y1="0%" x2="100%" y2="100%">
      <stop offset="0%" stop-color="#0a0e1a"/>
      <stop offset="100%" stop-color="#0d1526"/>
    </linearGradient>
    <linearGradient id="nameGrad" x1="0%" y1="0%" x2="100%" y2="0%">
      <stop offset="0%" stop-color="#4f8cff"/>
      <stop offset="100%" stop-color="#00d9ff"/>
    </linearGradient>
    <linearGradient id="chairGrad" x1="0%" y1="0%" x2="0%" y2="100%">
      <stop offset="0%" stop-color="#2a3550"/>
      <stop offset="100%" stop-color="#1a2338"/>
    </linearGradient>
    <clipPath id="frameClip">
      <rect x="10" y="10" width="1280" height="720" rx="24"/>
    </clipPath>
  </defs>

  <g clip-path="url(#frameClip)">
    <rect x="10" y="10" width="1280" height="720" fill="url(#bg)"/>

    <line x1="60" y1="238" x2="1240" y2="238" stroke="#1e4d6b" stroke-width="1" opacity="0.5"/>

    <g font-family="'Fira Code', 'Courier New', monospace">
      <text x="60" y="60" font-size="15" fill="#00d9ff">shamroz@android-dev<tspan fill="#4f8cff">:~$</tspan> <tspan fill="#e6edf3">cat README.md</tspan></text>
      <rect x="410" y="46" width="9" height="16" fill="#00d9ff"/>

      <text x="60" y="105" font-size="26" fill="#e6edf3">Hi, I'm 👋</text>

      <text x="60" y="165" font-size="52" font-weight="700" fill="url(#nameGrad)">Shamroz Abbas</text>
      <text x="470" y="165" font-size="34" fill="#4f8cff">💙</text>

      <line x1="60" y1="195" x2="600" y2="195" stroke="#00d9ff" stroke-width="2" opacity="0.5"/>
    </g>

    <g font-family="'Fira Code', 'Courier New', monospace">
      <rect x="710" y="35" width="530" height="215" rx="10" fill="#0f1729" stroke="#1e3a5f" stroke-width="1"/>
      <rect x="710" y="35" width="530" height="34" rx="10" fill="#12203a"/>
      <rect x="710" y="52" width="530" height="17" fill="#12203a"/>
      <circle cx="730" cy="52" r="6" fill="#ff5f56"/>
      <circle cx="750" cy="52" r="6" fill="#ffbd2e"/>
      <circle cx="770" cy="52" r="6" fill="#27c93f"/>
      <text x="975" y="57" font-size="13" fill="#8b98ac" text-anchor="middle">MainActivity.kt</text>

      <text x="732" y="98" font-size="14" fill="#4f8cff">fun<tspan fill="#e6edf3"> buildApp</tspan><tspan fill="#8b98ac">() {</tspan></text>
      <text x="750" y="122" font-size="14" fill="#4f8cff">return</text>
      <text x="800" y="122" font-size="14" fill="#8b98ac">(</text>
      <text x="768" y="146" font-size="14" fill="#00d9ff">Compose</text><text x="850" y="146" font-size="14" fill="#8b98ac">{</text>
      <text x="786" y="170" font-size="14" fill="#00d9ff">&lt;Kotlin</text><text x="856" y="170" font-size="14" fill="#8b98ac"> /&gt;</text>
      <text x="786" y="194" font-size="14" fill="#00d9ff">&lt;Coffee</text><text x="856" y="194" font-size="14" fill="#8b98ac"> /&gt;</text>
      <text x="786" y="218" font-size="14" fill="#00d9ff">&lt;Repeat</text><text x="858" y="218" font-size="14" fill="#8b98ac"> /&gt;</text>
      <text x="768" y="242" font-size="14" fill="#8b98ac">}); }</text>
      <text x="850" y="242" font-size="12" fill="#5b6b85">// runs forever</text>
    </g>

    <g font-family="'Fira Code', monospace">
      <rect x="60" y="272" width="500" height="80" rx="10" fill="#0f1729" stroke="#1e3a5f" stroke-width="1"/>
      <rect x="60" y="272" width="4" height="80" fill="#00d9ff"/>
      <text x="86" y="304" font-size="16" fill="#e6edf3">I don't watch anime,</text>
      <text x="86" y="330" font-size="16" font-weight="700" fill="#00d9ff">I build apps.</text>

      <text x="60" y="400" font-size="17" font-weight="700" fill="#4f8cff">⚙ Tech I Know</text>

      <g font-family="'Fira Code', monospace" font-size="13" font-weight="700">
        <rect x="60" y="418" width="70" height="34" rx="17" fill="#1a2a45" stroke="#4f8cff" stroke-width="1"/>
        <text x="95" y="440" fill="#89b4ff" text-anchor="middle">Kotlin</text>

        <rect x="140" y="418" width="60" height="34" rx="17" fill="#1a2a45" stroke="#00d9ff" stroke-width="1"/>
        <text x="170" y="440" fill="#5fe3ff" text-anchor="middle">Java</text>

        <rect x="210" y="418" width="150" height="34" rx="17" fill="#1a2a45" stroke="#4f8cff" stroke-width="1"/>
        <text x="285" y="440" fill="#89b4ff" text-anchor="middle">Jetpack Compose</text>

        <rect x="370" y="418" width="90" height="34" rx="17" fill="#1a2a45" stroke="#ffbd2e" stroke-width="1"/>
        <text x="415" y="440" fill="#ffd670" text-anchor="middle">Firebase</text>

        <rect x="60" y="462" width="60" height="34" rx="17" fill="#1a2a45" stroke="#00d9ff" stroke-width="1"/>
        <text x="90" y="484" fill="#5fe3ff" text-anchor="middle">XML</text>

        <rect x="130" y="462" width="130" height="34" rx="17" fill="#1a2a45" stroke="#4f8cff" stroke-width="1"/>
        <text x="195" y="484" fill="#89b4ff" text-anchor="middle">Android SDK</text>

        <rect x="270" y="462" width="60" height="34" rx="17" fill="#1a2a45" stroke="#00d9ff" stroke-width="1"/>
        <text x="300" y="484" fill="#5fe3ff" text-anchor="middle">Git</text>
      </g>

      <text x="60" y="546" font-size="17" font-weight="700" fill="#4f8cff">💠 About Me</text>
      <text x="60" y="574" font-size="14" fill="#c9d3e0">&gt;_ I build clean, performant native Android apps.</text>
      <text x="60" y="598" font-size="14" fill="#c9d3e0">💡 Always learning, always shipping.</text>
      <text x="60" y="622" font-size="14" fill="#c9d3e0">🚀 Turning ideas into apps people actually use.</text>

      <rect x="60" y="650" width="500" height="70" rx="10" fill="#0f1729" stroke="#1e3a5f" stroke-width="1"/>
      <line x1="185" y1="662" x2="185" y2="708" stroke="#1e3a5f" stroke-width="1"/>
      <line x1="310" y1="662" x2="310" y2="708" stroke="#1e3a5f" stroke-width="1"/>
      <line x1="435" y1="662" x2="435" y2="708" stroke="#1e3a5f" stroke-width="1"/>

      <text x="122" y="678" font-size="11" fill="#8b98ac" text-anchor="middle">Repos</text>
      <text x="122" y="702" font-size="16" font-weight="700" fill="#00d9ff" text-anchor="middle">7+</text>

      <text x="247" y="678" font-size="11" fill="#8b98ac" text-anchor="middle">Commits</text>
      <text x="247" y="702" font-size="16" font-weight="700" fill="#00d9ff" text-anchor="middle">300+</text>

      <text x="372" y="678" font-size="11" fill="#8b98ac" text-anchor="middle">Stars</text>
      <text x="372" y="702" font-size="16" font-weight="700" fill="#ffbd2e" text-anchor="middle">10+</text>

      <text x="497" y="678" font-size="11" fill="#8b98ac" text-anchor="middle">Followers</text>
      <text x="497" y="702" font-size="16" font-weight="700" fill="#00d9ff" text-anchor="middle">15+</text>
    </g>

    <rect x="1075" y="35" width="165" height="90" rx="10" fill="#0f1729" stroke="#00d9ff" stroke-width="1"/>
    <text x="1157" y="70" font-size="18" fill="#00d9ff" text-anchor="middle" font-family="monospace">&lt;/&gt;</text>
    <text x="1157" y="95" font-size="12" font-weight="700" fill="#89b4ff" text-anchor="middle" font-family="'Fira Code', monospace">KEEP CODING</text>
    <text x="1157" y="112" font-size="12" font-weight="700" fill="#89b4ff" text-anchor="middle" font-family="'Fira Code', monospace">KEEP GROWING</text>

    <g transform="translate(870,270)">
      <ellipse cx="150" cy="430" rx="220" ry="20" fill="#000000" opacity="0.25"/>

      <rect x="10" y="200" width="270" height="16" rx="4" fill="url(#chairGrad)"/>
      <rect x="20" y="216" width="14" height="180" fill="#243252"/>
      <rect x="246" y="216" width="14" height="180" fill="#243252"/>
      <rect x="80" y="60" width="130" height="160" rx="14" fill="url(#chairGrad)" stroke="#344870" stroke-width="1"/>

      <ellipse cx="150" cy="30" r="38" fill="#c98a5e"/>
      <circle cx="150" cy="35" r="38" fill="#c98a5e"/>
      <path d="M112,20 Q150,-20 188,20 Q192,55 178,45 Q170,15 150,20 Q130,15 122,45 Q108,55 112,20 Z" fill="#1b2430"/>
      <circle cx="136" cy="38" r="3.5" fill="#1b2430"/>
      <circle cx="164" cy="38" r="3.5" fill="#1b2430"/>
      <path d="M140,52 Q150,58 160,52" stroke="#1b2430" stroke-width="2" fill="none" stroke-linecap="round"/>

      <path d="M95,68 Q150,45 205,68 L215,150 Q150,175 85,150 Z" fill="#2d6cd6"/>
      <path d="M120,68 L150,90 L180,68" fill="none" stroke="#1a4a9e" stroke-width="3"/>

      <path d="M80,90 Q45,110 40,175 L65,180 Q70,130 100,105 Z" fill="#2d6cd6"/>
      <path d="M220,90 Q255,110 260,175 L235,180 Q230,130 200,105 Z" fill="#2d6cd6"/>
      <rect x="35" y="170" width="34" height="18" rx="6" fill="#c98a5e"/>
      <rect x="231" y="170" width="34" height="18" rx="6" fill="#c98a5e"/>

      <path d="M95,150 L100,240 Q150,255 200,240 L205,150 Z" fill="#16213a"/>
      <rect x="95" y="235" width="45" height="80" rx="10" fill="#1d2c4a"/>
      <rect x="160" y="235" width="45" height="80" rx="10" fill="#1d2c4a"/>

      <g transform="translate(70,150) rotate(-8)">
        <rect x="0" y="0" width="140" height="90" rx="4" fill="#16213a" stroke="#00d9ff" stroke-width="1.5"/>
        <rect x="8" y="8" width="124" height="66" rx="2" fill="#0a1226"/>
        <text x="70" y="45" font-size="10" fill="#00d9ff" text-anchor="middle" font-family="monospace">&lt;/&gt;</text>
        <rect x="-6" y="88" width="152" height="8" rx="3" fill="#233252"/>
      </g>

      <rect x="330" y="300" width="70" height="65" rx="8" fill="#4a3a2a"/>
      <ellipse cx="365" cy="300" rx="35" ry="8" fill="#5c4832"/>
      <rect x="315" y="200" width="100" height="14" rx="4" fill="#4a3a2a"/>
      <rect x="320" y="130" width="90" height="72" rx="4" fill="#233252" stroke="#344870" stroke-width="1"/>
      <text x="365" y="150" font-size="9" fill="#89b4ff" text-anchor="middle" font-family="monospace">KOTLIN</text>
      <text x="365" y="164" font-size="9" fill="#89b4ff" text-anchor="middle" font-family="monospace">JAVA</text>
      <text x="365" y="178" font-size="9" fill="#89b4ff" text-anchor="middle" font-family="monospace">COMPOSE</text>
      <text x="365" y="192" font-size="9" fill="#89b4ff" text-anchor="middle" font-family="monospace">FIREBASE</text>

      <circle cx="345" cy="330" r="26" fill="#3a2a1a"/>
      <rect x="333" y="308" width="24" height="22" rx="3" fill="#e6edf3"/>
      <path d="M337,310 Q345,300 353,310" stroke="#5c8a3a" stroke-width="3" fill="none"/>

      <g transform="translate(20,240)">
        <rect x="0" y="0" width="26" height="34" rx="3" fill="#e6edf3"/>
        <rect x="4" y="4" width="18" height="4" fill="#4f8cff"/>
        <rect x="4" y="11" width="18" height="4" fill="#00d9ff"/>
        <rect x="4" y="18" width="12" height="4" fill="#4f8cff"/>
        <text x="13" y="30" font-size="6" fill="#0a1226" text-anchor="middle" font-family="monospace">TODO</text>
      </g>
    </g>

    <text x="700" y="410" font-size="130" fill="#4f8cff" opacity="0.06" font-family="monospace" font-weight="700">&lt;/&gt;</text>

    <line x1="60" y1="662" x2="1240" y2="662" stroke="#1e4d6b" stroke-width="1" opacity="0.5"/>

    <g font-family="'Fira Code', monospace" font-size="14">
      <circle cx="72" cy="692" r="10" fill="#0f1729" stroke="#4f8cff" stroke-width="1"/>
      <text x="72" y="696" font-size="11" fill="#89b4ff" text-anchor="middle">GH</text>
      <text x="94" y="697" fill="#c9d3e0">SN7293</text>

      <circle cx="230" cy="692" r="10" fill="#0f1729" stroke="#00d9ff" stroke-width="1"/>
      <text x="230" y="696" font-size="11" fill="#5fe3ff" text-anchor="middle">@</text>
      <text x="252" y="697" fill="#c9d3e0">your-email@example.com</text>

      <circle cx="500" cy="692" r="10" fill="#0f1729" stroke="#4f8cff" stroke-width="1"/>
      <text x="500" y="696" font-size="10" fill="#89b4ff" text-anchor="middle">in</text>
      <text x="522" y="697" fill="#c9d3e0">your-linkedin</text>

      <circle cx="680" cy="692" r="4" fill="#27c93f"/>
      <text x="694" y="697" fill="#8fdca0">open to collaborate</text>

      <text x="1000" y="697" fill="#89b4ff" font-style="italic">"Code it. Ship it. Repeat."</text>
      <text x="1195" y="697" font-size="16" fill="#4f8cff">💙</text>
    </g>
  </g>

  <rect x="10" y="10" width="1280" height="720" rx="24" fill="none" stroke="#00d9ff" stroke-width="2" opacity="0.6"/>
</svg>
