<svg width="1220" height="420" viewBox="0 0 1220 420" xmlns="http://www.w3.org/2000/svg">
  <defs>
    <linearGradient id="rankGrad" x1="0%" y1="0%" x2="100%" y2="100%">
      <stop offset="0%" stop-color="#4f8cff"/>
      <stop offset="100%" stop-color="#00d9ff"/>
    </linearGradient>
    <linearGradient id="langGrad" x1="0%" y1="0%" x2="100%" y2="0%">
      <stop offset="0%" stop-color="#4f8cff"/>
      <stop offset="60%" stop-color="#00d9ff"/>
      <stop offset="100%" stop-color="#7f77dd"/>
    </linearGradient>
  </defs>

  <g font-family="'Fira Code', 'Courier New', monospace">
    <text x="610" y="34" font-size="20" font-weight="700" fill="#e6edf3" text-anchor="middle">📊 GitHub Stats &amp; Graphs</text>

    <rect x="20" y="60" width="580" height="340" rx="14" fill="#0f1729" stroke="#1e4d6b" stroke-width="1"/>
    <text x="46" y="98" font-size="17" font-weight="700" fill="#00d9ff">⚡ Shamroz's GitHub Stats</text>

    <text x="46" y="140" font-size="14" fill="#c9d3e0">⭐ Total Stars Earned:</text>
    <text x="440" y="140" font-size="14" font-weight="700" fill="#ffbd2e" text-anchor="end">10+</text>

    <text x="46" y="172" font-size="14" fill="#c9d3e0">💻 Total Commits:</text>
    <text x="440" y="172" font-size="14" font-weight="700" fill="#00d9ff" text-anchor="end">300+</text>

    <text x="46" y="204" font-size="14" fill="#c9d3e0">📦 Public Repos:</text>
    <text x="440" y="204" font-size="14" font-weight="700" fill="#5fd97f" text-anchor="end">7+</text>

    <text x="46" y="236" font-size="14" fill="#c9d3e0">👥 Followers:</text>
    <text x="440" y="236" font-size="14" font-weight="700" fill="#89b4ff" text-anchor="end">15+</text>

    <text x="46" y="268" font-size="14" fill="#c9d3e0">📱 Android Apps Built:</text>
    <text x="440" y="268" font-size="14" font-weight="700" fill="#00d9ff" text-anchor="end">5</text>

    <circle cx="510" cy="240" r="62" fill="none" stroke="#1a2a45" stroke-width="8"/>
    <circle cx="510" cy="240" r="62" fill="none" stroke="url(#rankGrad)" stroke-width="8" stroke-dasharray="315 390" stroke-linecap="round" transform="rotate(-90 510 240)"/>
    <text x="510" y="252" font-size="34" font-weight="700" fill="#00d9ff" text-anchor="middle">A</text>
    <text x="510" y="326" font-size="12" fill="#8b98ac" text-anchor="middle">RANK</text>

    <rect x="620" y="60" width="580" height="340" rx="14" fill="#0f1729" stroke="#1e4d6b" stroke-width="1"/>
    <text x="646" y="98" font-size="17" font-weight="700" fill="#00d9ff">📈 Top Languages</text>

    <rect x="646" y="120" width="528" height="14" rx="7" fill="#1a2a45"/>
    <rect x="646" y="120" width="330" height="14" rx="7" fill="#4f8cff"/>
    <rect x="960" y="120" width="130" height="14" fill="#00d9ff"/>
    <rect x="1076" y="120" width="60" height="14" fill="#5fd97f"/>
    <rect x="1120" y="120" width="54" height="14" rx="7" fill="#ffbd2e"/>

    <circle cx="654" cy="166" r="6" fill="#4f8cff"/>
    <text x="670" y="171" font-size="14" font-weight="700" fill="#e6edf3">Kotlin</text>
    <rect x="646" y="182" width="528" height="6" rx="3" fill="#1a2a45"/>
    <rect x="646" y="182" width="330" height="6" rx="3" fill="#4f8cff"/>
    <text x="1174" y="171" font-size="14" font-weight="700" fill="#89b4ff" text-anchor="end">62.5%</text>

    <circle cx="654" cy="212" r="6" fill="#00d9ff"/>
    <text x="670" y="217" font-size="14" font-weight="700" fill="#e6edf3">Java</text>
    <rect x="646" y="228" width="528" height="6" rx="3" fill="#1a2a45"/>
    <rect x="646" y="228" width="130" height="6" rx="3" fill="#00d9ff"/>
    <text x="1174" y="217" font-size="14" font-weight="700" fill="#5fe3ff" text-anchor="end">24.6%</text>

    <circle cx="654" cy="258" r="6" fill="#5fd97f"/>
    <text x="670" y="263" font-size="14" font-weight="700" fill="#e6edf3">XML</text>
    <rect x="646" y="274" width="528" height="6" rx="3" fill="#1a2a45"/>
    <rect x="646" y="274" width="60" height="6" rx="3" fill="#5fd97f"/>
    <text x="1174" y="263" font-size="14" font-weight="700" fill="#8fdca0" text-anchor="end">11.4%</text>

    <circle cx="654" cy="304" r="6" fill="#ffbd2e"/>
    <text x="670" y="309" font-size="14" font-weight="700" fill="#e6edf3">Others</text>
    <rect x="646" y="320" width="528" height="6" rx="3" fill="#1a2a45"/>
    <rect x="646" y="320" width="54" height="6" rx="3" fill="#ffbd2e"/>
    <text x="1174" y="309" font-size="14" font-weight="700" fill="#ffd670" text-anchor="end">1.5%</text>

    <text x="646" y="376" font-size="11" fill="#5b6b85">Edit these percentages in shamroz-stats-graphs.svg to match your real repos.</text>
  </g>
</svg>
